<?xml version="1.0" encoding="UTF-8" standalone="no"?>
<svg
   viewBox="0 0 24 24"
   version="1.1"
   id="svg403"
   sodipodi:docname="mail-flat.svg"
   inkscape:version="1.2.1 (9c6d41e, 2022-07-14)"
   xmlns:inkscape="http://www.inkscape.org/namespaces/inkscape"
   xmlns:sodipodi="http://sodipodi.sourceforge.net/DTD/sodipodi-0.dtd"
   xmlns="http://www.w3.org/2000/svg"
   xmlns:svg="http://www.w3.org/2000/svg">
  <defs
     id="defs407" />
  <sodipodi:namedview
     id="namedview405"
     pagecolor="#ffffff"
     bordercolor="#000000"
     borderopacity="0.25"
     inkscape:showpageshadow="2"
     inkscape:pageopacity="0.0"
     inkscape:pagecheckerboard="0"
     inkscape:deskcolor="#d1d1d1"
     showgrid="false"
     inkscape:zoom="9.8333333"
     inkscape:cx="10.525424"
     inkscape:cy="8.3389831"
     inkscape:window-width="1309"
     inkscape:window-height="456"
     inkscape:window-x="0"
     inkscape:window-y="25"
     inkscape:window-maximized="0"
     inkscape:current-layer="svg403" />
  <path
     d="m 12,3.25 c 4.82475,0 8.75,3.92525 8.75,8.75 0,4.82475 -3.92525,8.75 -8.75,8.75 C 7.17525,20.75 3.25,16.82475 3.25,12 3.25,7.17525 7.17525,3.25 12,3.25 Z M 12,1.5 C 6.201375,1.5 1.5,6.201375 1.5,12 1.5,17.798625 6.201375,22.5 12,22.5 17.798625,22.5 22.5,17.798625 22.5,12 22.5,6.201375 17.798625,1.5 12,1.5 Z M 12,12.48125 6.757,8.4825 h 10.485125 z m 0,1.127 L 6.75,9.557875 V 15.4825 h 10.5 V 9.557875 Z"
     id="path401"
     style="stroke-width:0.874999" />
</svg>
